{"title":"House 6x19 HDTV + AC3 mkv","uid":5594581,"size":461658902,"categoryP":"video","categoryS":"hd___tv_shows","magnet":"?xt=urn:btih:80833072b01eb09a89b15e3e233f9c905a9c5626&amp;dn=House+6x19+HDTV+%2B+AC3+mkv&amp;tr=udp%3A%2F%2Ftracker.openbittorrent.com%3A80&amp;tr=udp%3A%2F%2Fopen.demonii.com%3A1337&amp;tr=udp%3A%2F%2Ftracker.coppersurfer.tk%3A6969&amp;tr=udp%3A%2F%2Fexodus.desync.com%3A6969","seeders":0,"leechers":1,"uploader":"fleqii","files":1,"time":1274990012,"description":"E:UsersJOELDownloadsHouse 6x19 HDTV + AC3.mkv\n   General\n      Complete name : E:UsersJOELDownloadsHouse 6x19 HDTV + AC3.mkv\n      Format : Matroska\n      File size : 440 MiB\n      Duration : 41mn 20s\n      Overall bit rate : 1 489 Kbps\n      Encoded date : UTC 2010-05-27 17:30:18\n      Writing application : VirtualDubMod 1.5.10.2 (build 2540/release)\n      Writing library : libebml-0.7.5 &amp; libmatroska-0.7.7\n   Video #1\n      ID : 1\n      Format : MPEG-4 Visual\n      Format profile : AdvancedSimple@L5\n      Format settings, BVOP : Yes\n      Format settings, QPel : No\n      Format settings, GMC : No warppoints\n      Format settings, Matrix : Default (H.263)\n      Codec ID : XVID\n      Codec ID/Hint : XviD\n      Duration : 41mn 20s\n      Bit rate : 1 011 Kbps\n      Width : 624 pixels\n      Height : 352 pixels\n      Display aspect ratio : 16:9\n      Frame rate : 25.000 fps\n      Original frame rate : 23.976 fps\n      Resolution : 24 bits\n      Colorimetry : 4:2:0\n      Scan type : Progressive\n      Bits/(Pixel*Frame) : 0.184\n      Stream size : 299 MiB (68%)\n      Writing library : XviD 1.2.1 (UTC 2008-12-04)\n   Audio #2\n      ID : 2\n      Format : AC-3\n      Format/Info : Audio Coding 3\n      Codec ID : A_AC3\n      Duration : 41mn 20s\n      Bit rate mode : Constant\n      Bit rate : 448 Kbps\n      Channel(s) : 2 channels\n      Channel positions : L R\n      Sampling rate : 48.0 KHz\n      Stream size : 132 MiB (30%)","torrent":{"xt":"urn:btih:80833072b01eb09a89b15e3e233f9c905a9c5626","amp;dn":"House+6x19+HDTV+%2B+AC3+mkv","amp;tr":["udp%3A%2F%2Ftracker.openbittorrent.com%3A80","udp%3A%2F%2Fopen.demonii.com%3A1337","udp%3A%2F%2Ftracker.coppersurfer.tk%3A6969","udp%3A%2F%2Fexodus.desync.com%3A6969"],"infoHash":"80833072b01eb09a89b15e3e233f9c905a9c5626","infoHashBuffer":{"type":"Buffer","data":[128,131,48,114,176,30,176,154,137,177,94,62,35,63,156,144,90,156,86,38]},"announce":[],"urlList":[]}}